<svg xmlns="http://www.w3.org/2000/svg" viewBox="0 0 100.09 100.1">
<defs>
</defs><g id="Layer_2" data-name="Layer 2"><g id="Layer_5" data-name="Layer 5">
<path d="M50.09,2.88a48.58,48.58,0,0,1,6,.39c.07,3.46,1.16,8.24,4.12,9.23a3.56,3.56,0,0,0,1.13.18c2.94,0,5.83-3.43,7.38-5.92a47.44,47.44,0,0,1,9.94,5.83c-1.67,3-3.11,7.71-1,10A4.35,4.35,0,0,0,81.09,24a15.71,15.71,0,0,0,6.81-2,47,47,0,0,1,5.69,10c-3,1.79-6.55,5.11-5.93,8.18.68,3.36,5.88,4.39,9.23,4.49a46.74,46.74,0,0,1-.07,11.52c-3.08.06-8.18,1-9.23,4.12s2.93,6.76,5.75,8.51a46.81,46.81,0,0,1-5.84,9.94,15.3,15.3,0,0,0-6.86-2.07,4.66,4.66,0,0,0-3.18,1c-2.58,2.28-.84,7.32.73,10.25a47,47,0,0,1-10,5.69c-1.81-3-4.76-6-7.47-6a3.35,3.35,0,0,0-.71.07c-3.37.68-4.39,5.92-4.49,9.23a48.26,48.26,0,0,1-5.49.32,46.88,46.88,0,0,1-6-.39c-.07-3.46-1.15-8.24-4.12-9.23a3.55,3.55,0,0,0-1.12-.18c-2.94,0-5.84,3.44-7.39,5.93A47.23,47.23,0,0,1,21.4,87.5c1.67-3,3.11-7.7,1-10A4.37,4.37,0,0,0,19,76.14a15.69,15.69,0,0,0-6.81,2,46.86,46.86,0,0,1-5.7-10c3-1.79,6.56-5.12,5.93-8.18-.68-3.36-5.88-4.39-9.22-4.49A46.82,46.82,0,0,1,3.28,44c3.07-.06,8.17-1,9.22-4.12s-2.93-6.76-5.74-8.51a47.37,47.37,0,0,1,5.83-9.93,15.43,15.43,0,0,0,6.86,2.07,4.66,4.66,0,0,0,3.18-1c2.58-2.28.84-7.33-.73-10.25a46.23,46.23,0,0,1,10-5.69c1.8,3,4.75,6,7.46,6a4.17,4.17,0,0,0,.71-.07c3.38-.69,4.39-5.92,4.5-9.23a46,46,0,0,1,5.49-.33M50,79.14a29.09,29.09,0,1,0-5.77-57.59A29.09,29.09,0,0,0,50,79.14m.07-77.22a48.52,48.52,0,0,0-6.45.43c.06,3.64-1,8.59-3.73,9.14a2.24,2.24,0,0,1-.52,0c-2.48,0-5.45-3.27-7-6.25a47.73,47.73,0,0,0-11.7,6.65c1.87,3.12,3.43,7.94,1.34,9.78a3.72,3.72,0,0,1-2.54.79,15,15,0,0,1-7.1-2.36,47.9,47.9,0,0,0-6.81,11.6c3.18,1.76,6.93,5.16,6.05,7.8C10.8,41.91,6.49,43,3,43H2.44a48.11,48.11,0,0,0-.09,13.46h.31c3.6,0,8.29,1.08,8.83,3.73s-3,5.86-6.2,7.57a47.78,47.78,0,0,0,6.65,11.7A15.36,15.36,0,0,1,19,77.11a3.49,3.49,0,0,1,2.71,1c1.73,2,.33,6.57-1.58,9.65a48.67,48.67,0,0,0,11.61,6.81c1.58-2.86,4.49-6.18,7-6.18a2.5,2.5,0,0,1,.81.13C42,89.34,43.11,94,43,97.66a47.91,47.91,0,0,0,7,.52,48.4,48.4,0,0,0,6.44-.44c-.06-3.63,1-8.58,3.73-9.13a2.31,2.31,0,0,1,.52-.06c2.48,0,5.45,3.28,7,6.25a47.66,47.66,0,0,0,11.71-6.65C77.57,85,76,80.22,78.1,78.37a3.77,3.77,0,0,1,2.54-.78A14.94,14.94,0,0,1,87.74,80a48.12,48.12,0,0,0,6.82-11.6c-3.18-1.76-6.94-5.16-6.06-7.8.8-2.37,5.1-3.46,8.63-3.46h.53a47.75,47.75,0,0,0,.08-13.46h-.31c-3.6,0-8.29-1.08-8.82-3.73s3-5.86,6.19-7.56a47.41,47.41,0,0,0-6.65-11.7A15.32,15.32,0,0,1,81.09,23a3.48,3.48,0,0,1-2.72-1c-1.73-2-.32-6.57,1.58-9.64a48.47,48.47,0,0,0-11.6-6.81c-1.59,2.85-4.5,6.18-7,6.18a2.51,2.51,0,0,1-.82-.13c-2.48-.83-3.57-5.54-3.46-9.16a47.67,47.67,0,0,0-7-.51ZM50,78.17a28.14,28.14,0,1,1,5.63-.57,28.6,28.6,0,0,1-5.63.57Z"/></g></g></svg>