<svg xmlns="http://www.w3.org/2000/svg" viewBox="0 0 89.67 108.66"><defs><style>.cls-1{fill:none;stroke:#333;stroke-miterlimit:10;stroke-width:3.84px;}</style></defs><g id="Layer_2" data-name="Layer 2"><g id="Layer_5" data-name="Layer 5"><path class="cls-1" d="M44.83,106.74c-11.34,0-22-1.48-30-4.16C6.49,99.82,1.92,96,1.92,91.92v-18a.75.75,0,1,1,1.5,0v18c0,3.36,4.32,6.73,11.84,9.24,7.89,2.63,18.39,4.08,29.57,4.08s21.69-1.45,29.58-4.08c7.52-2.51,11.83-5.88,11.83-9.24v-18a.76.76,0,1,1,1.51,0v18c0,4.11-4.57,7.9-12.87,10.66C66.85,105.26,56.17,106.74,44.83,106.74Z"/><path class="cls-1" d="M44.83,81.68c-11.34,0-22-1.48-30-4.16C6.49,74.75,1.92,71,1.92,66.86v-18a.75.75,0,0,1,1.5,0v18c0,3.36,4.32,6.72,11.84,9.23,7.89,2.64,18.39,4.08,29.57,4.08s21.69-1.44,29.58-4.08c7.52-2.51,11.83-5.87,11.83-9.23v-18a.76.76,0,0,1,1.51,0v18c0,4.11-4.57,7.89-12.87,10.66C66.85,80.2,56.17,81.68,44.83,81.68Z"/><path class="cls-1" d="M44.83,56.62c-11.34,0-22-1.48-30-4.16C6.49,49.69,1.92,45.91,1.92,41.8v-18a.75.75,0,0,1,1.5,0v18c0,3.36,4.32,6.72,11.84,9.23,7.89,2.63,18.39,4.08,29.57,4.08S66.52,53.66,74.41,51c7.52-2.51,11.83-5.87,11.83-9.23v-18a.76.76,0,0,1,1.51,0v18c0,4.11-4.57,7.89-12.87,10.66C66.85,55.14,56.17,56.62,44.83,56.62Z"/><path class="cls-1" d="M44.83,31.55c-11.34,0-22-1.47-30-4.15C6.49,24.63,1.92,20.84,1.92,16.74S6.49,8.84,14.78,6.08c8-2.68,18.71-4.16,30.05-4.16s22,1.48,30.05,4.16c8.3,2.76,12.87,6.55,12.87,10.66S83.18,24.63,74.88,27.4C66.85,30.08,56.17,31.55,44.83,31.55Zm0-28.13c-11.18,0-21.68,1.45-29.57,4.08C7.74,10,3.42,13.38,3.42,16.74S7.74,23.46,15.26,26c7.89,2.63,18.39,4.08,29.57,4.08S66.52,28.6,74.41,26c7.52-2.51,11.83-5.88,11.83-9.23S81.93,10,74.41,7.5C66.52,4.87,56,3.42,44.83,3.42Z"/><circle class="cls-1" cx="12.54" cy="37.44" r="1.72"/><circle class="cls-1" cx="12.54" cy="62.95" r="1.72"/><circle class="cls-1" cx="12.54" cy="88.45" r="1.72"/></g></g></svg>