<svg xmlns="http://www.w3.org/2000/svg" viewBox="0 0 571.08 387.07"><defs></defs><g id="Layer_2" data-name="Layer 2"><g id="Layer_4" data-name="Layer 4"><path d="M84.93,387.07a85,85,0,1,1,9.43-169.51,29.23,29.23,0,0,0,3.09.17,28,28,0,0,0,21.18-46.3,84.93,84.93,0,1,1,147.05-35.35,28,28,0,0,0,41.85,30.49,85.18,85.18,0,0,1,67.4-9.4A28,28,0,0,0,408.17,119,85,85,0,0,1,469.48,1.65a84.92,84.92,0,0,1,100,66.77A85.07,85.07,0,0,1,486,170a84,84,0,0,1-22.8-3.15A28,28,0,0,0,430,205.06a85,85,0,0,1-61.31,117.35,85,85,0,0,1-100-66.77,84.22,84.22,0,0,1,.7-36.66,28,28,0,0,0-41.85-30.49,85.44,85.44,0,0,1-53.88,12,29.38,29.38,0,0,0-3.09-.17,28,28,0,0,0-21.18,46.3A85,85,0,0,1,84.93,387.07Z"/></g></g></svg>