<svg xmlns="http://www.w3.org/2000/svg" viewBox="0 0 313.58 286.97"><defs><style>.cls-1{fill:#f2f2f2;}</style></defs><g id="Layer_2" data-name="Layer 2"><g id="Layer_4" data-name="Layer 4"><path class="cls-1" d="M126.52,222.54c-1.09-.87-5.82,1.59-7,2.37C108,232.25,98.9,260.29,87.92,272.17c-25.59,27.68-55.45,5.28-50.69-28.71,3.1-22.06,17.52-38.82,22.64-58.46,5.66-21.72-6.08-15.87-22.14-18.8C-32,153.46,5,74.74,67,80c16.23,1.39,38.35,14.73,53.44,10.2,18.83-5.65,15.82-33.6,19.34-48.87,10.54-45.65,58.42-58,82.36-14.15,15.55,28.49,7.21,47.88,9.74,76.66,2.32,26.27,19,21.37,38.66,25.76,70.16,15.63,48.77,90.25-23.12,86-6.78-.4-41.63-9.25-43.9-7.53-3.57,2.71-1.51,30.52-2,36.71-4.16,54.2-48.16,56-67.24,5.89C132.54,246,127.67,223.45,126.52,222.54ZM180.17,21.09c-2.73.44-5.26,2.32-7.39,4-23.15,18.08-5,56.49-33,78.43-29.52,23.17-56.42-5.66-86.3-2.17-23.36,2.72-50.92,35.82-14.9,43.53,13.68,2.93,28.78.24,38.67,12.87,22.2,28.36-27.88,73.6-18.22,100.83,4.35,12.25,15.32-3.22,18.55-8.08,11.17-16.76,17.77-41.22,39.46-47.7,3.42-1,14.23-3.2,17.46-3.08a10,10,0,0,1,8.89,6.34c3.27,8.3,3,19.32,6.43,29.19,2.86,8.33,17.1,43.85,26.74,24,9.54-19.6-4.56-55.51,14.14-68.47,14.57-10.1,34.36.53,50.11,2.7,16.76,2.3,57.61-.79,50.36-26.86C286.24,148.85,251.67,150,237.78,145c-39.41-14-22-60.63-28.09-90.9C207.15,41.42,196.18,18.51,180.17,21.09Z"/></g></g></svg>