<svg xmlns="http://www.w3.org/2000/svg" viewBox="0 0 181.56 211.58"><defs><style>.cls-1{fill:#f2f2f2;}</style></defs><g id="Layer_2" data-name="Layer 2"><g id="Layer_4" data-name="Layer 4"><path class="cls-1" d="M106.64,47.75c1.78,1.72,24-2,28.37-2,26.86-.18,30.31,24.68,15,42.39-9.29,10.74-51.36,36.19-48.72,50.36.87,4.69,11.17,2.65,14.75,1.85,21.55-4.79,33.23-14.66,46.56-30.74,9-10.87,24,.13,17.23,13.2-11.88,22.79-76.21,56.6-95.22,30.06-14-19.49,6-42.88,20.53-55.18,8-6.81,26.41-17.92,31.15-26.24,2.09-3.65,2.48-4.49-1.66-4.51-16.1-.09-42.24,9.73-49.1-13.74-3.58-12.28,6.07-43,16.12-50.72,8.85-6.8,19.06,1.51,14.55,11.32-.71,1.54-2.68,3.27-3.41,4.79C110.49,23.33,102.48,43.76,106.64,47.75Z"/><path class="cls-1" d="M39.75,152.27c.91.92,21.25,5.92,24.86,7.47,5.65,2.41,9.92,5.89,7.8,12.87C68,187,45.87,171.2,36.86,172.08l-3.64,34C30,214.19,18.9,213,16.87,204.67a34.77,34.77,0,0,1-.28-6c-.15-10.89,2.38-22.86,2-33.9C17.39,162,3.79,161.4.67,153.28-2,146.24,3.81,140,11,142c1.48.41,8.4,4.88,9.47,3.61.64-.76-.36-15.51,1.82-19.63,2.82-5.3,10.39-6.95,14.75-2.61C43.56,129.84,37.54,150,39.75,152.27Z"/><path class="cls-1" d="M36.55,38.84C67.77,24.25,82,75.78,51.5,81.09,28.25,85.14,17.07,48,36.55,38.84Zm10.89,16.6c-3-.84-1.29,5.89.27,6.37C50.77,62.76,48.35,55.7,47.44,55.44Z"/></g></g></svg>