<svg xmlns="http://www.w3.org/2000/svg" viewBox="0 0 112.52 129.83"><defs><style>.cls-1{fill:#f2f2f2;}</style></defs><g id="Layer_2" data-name="Layer 2"><g id="Layer_4" data-name="Layer 4"><path class="cls-1" d="M83.38.68c13.79-2.39,13.71,21.82-.53,19.19C74.05,18.25,75,2.12,83.38.68Z"/><path class="cls-1" d="M96.47,79.58c12-.27,10.74,18.14-1.58,17.62C84,96.75,85.15,79.83,96.47,79.58Z"/><path class="cls-1" d="M44,111.55c12.13-1.24,12.25,18.12.87,18.28C34.42,130,33.51,112.63,44,111.55Z"/><path class="cls-1" d="M66.05,80.55C76.52,79,80.18,93.32,69.85,97,56.3,101.75,53.89,82.37,66.05,80.55Z"/><path class="cls-1" d="M46.6.16c12.82-2.06,13.18,17,.39,17.25C36.32,17.65,36,1.86,46.6.16Z"/><path class="cls-1" d="M48.5,53.29C56.22,45.12,68.24,58,61.21,65.73,54,73.67,40.81,61.43,48.5,53.29Z"/><path class="cls-1" d="M7.22,82.64c11.31-.94,12,16.13,1.34,16.66S-3.07,83.5,7.22,82.64Z"/><path class="cls-1" d="M102.83,38.52c11.36-1.82,13,14.42,3.42,16C94.23,56.56,93,40.09,102.83,38.52Z"/></g></g></svg>