<svg xmlns="http://www.w3.org/2000/svg" viewBox="0 0 205.02 196"><defs><style>.cls-1{fill:#f2f2f2;}</style></defs><g id="Layer_2" data-name="Layer 2"><g id="Layer_4" data-name="Layer 4"><path class="cls-1" d="M95.77.24C145.19-3,188.5,27.79,202,75.33c13.7,48.21-21,107.11-70,117.21-23.17,4.77-38.44,5.61-61.12-4C29,170.85-1.11,122.39,0,77,1.25,28.33,53,3.08,95.77.24Zm66.69,157.93c5.6-4.28,10.73-12.13,14.33-18.23,22.53-38.23,13.54-77.41-19.72-105.54-32.51-27.5-83.73-22.32-117.2.82-60.49,41.83,4.26,153.43,72.77,145.05,8-1,6.82-5.08,10.65-6.53,5.22-2,5,.62,10.92-4.1,46-36.51,16.58-124.72-47.05-113.6-33.62,5.88-47.57,28.77-36,61.32,9.42,26.41,37.31,37.85,61,20.94,13.5-9.64,10.09-31.78-.5-42.06-8.43-8.19-23.33-6.28-17.81,9.23,2.68,7.54,4.67,5.62,8.23,9.3,6.74,7-5,18.17-14.75,8C71.83,106.41,73.24,77.69,99.94,76c35.38-2.28,57.49,65,8.1,81.81C59.4,174.31,26.76,131.63,31.6,86.35c3.84-36,52.56-52.21,83.21-44C167.4,56.3,185.11,111.24,162.46,158.17Zm-.36.72v.71l.36-.36Z"/></g></g></svg>