<svg xmlns="http://www.w3.org/2000/svg" viewBox="0 0 376.37 306.18"><defs><style>.cls-1{fill:#bbb;}</style></defs><g id="Layer_2" data-name="Layer 2"><g id="Layer_4" data-name="Layer 4"><path class="cls-1" d="M298.66,306.18a79.52,79.52,0,0,1-9-.52,77.79,77.79,0,0,1-41.8-136.23,9.43,9.43,0,0,0-6.15-16.57,9.7,9.7,0,0,0-2.32.29A78.1,78.1,0,0,1,211.24,155a76.88,76.88,0,0,1-45.51-21.76,9.42,9.42,0,0,0-15.39,10.14,77.84,77.84,0,0,1-72.5,105.85,79.68,79.68,0,0,1-9-.51,77.77,77.77,0,0,1,8.86-155,79.56,79.56,0,0,1,9,.52A76.86,76.86,0,0,1,132.25,116a9.42,9.42,0,0,0,15.4-10.13,77.74,77.74,0,1,1,123.24,30.91A9.42,9.42,0,0,0,277,153.32a9.84,9.84,0,0,0,2.33-.29,77.78,77.78,0,1,1,19.31,153.15Z"/></g></g></svg>