<svg xmlns="http://www.w3.org/2000/svg" viewBox="0 0 140.93 131.16">
<defs>
</defs>
<g id="Layer_2" data-name="Layer 2">
<g id="Layer_4" data-name="Layer 4">
<path d="M98.46,104.54c-.25.2-.86,5.16-1.25,6.36-7.09,22.17-31.7,29.39-42.31,5-1.3-3-6.58-21-7.48-21.71-.66-.54-13.61,5.1-16.07,5.74C-1.91,108.58-9.87,81.15,13.09,60.61c.88-.78,4.74-2.93,4.87-3.48s-4.43-7.29-5.1-9c-3.37-8.69-2.76-19.68,5.57-25.31C25.11,18.26,31.61,19.57,39,21c3.06.59,18.39,5.75,19.36,5.48.79-.22,5.57-7.6,6.74-9a74.14,74.14,0,0,1,7.09-7.63c25.56-22.84,50-2.77,43.75,28.06-.47,2.33-4.42,12.64-4.21,13.31.29.87,12.71,8.78,14.9,10.65,21.45,18.33,19.73,45-11.73,45.12C112,107,99.12,104,98.46,104.54Z"/>
</g>
</g>
</svg>