<svg xmlns="http://www.w3.org/2000/svg" viewBox="0 0 288.38 293"><defs><style>.cls-1{fill:#f2f2f2;}</style></defs><g id="Layer_2" data-name="Layer 2"><g id="Layer_4" data-name="Layer 4"><path class="cls-1" d="M165.91,118.29,212.5,55.71C223.2,44,241.1,53,237.25,68.82c-2.87,11.81-34.83,44.84-42.26,58.66-.44.84-1.62,2.75-.94,3.42,3,2.92,69.2-24.82,79.39-25,16.5.18,20.52,20.58,6,27.47l-94.17,32L243,228c8.17,13.34-5.45,27.83-19.22,20.18-11.48-6.38-32.41-36.62-44.27-47-.6-.52-2.27-2.25-2.94-1.42-2.49,3.09,10.14,69.35,9.44,78.84-1.72,17.61-24.62,19.9-28.58,1.92L146,195,83,280.39c-11.84,11.81-30.25.51-24-15.28l55.51-76.94L15.94,220.22c-17.78-.19-22.15-20.07-5.58-28,33.3-15.86,80.88-24.43,116.73-38.55,1.34-.52,5.42-.93,4.84-2.9L47.53,60.52C34.84,46.93,48.65,27.74,64.9,37.32l70.91,75.14L124.18,13c1.27-13.43,19.58-18.1,26.4-6C158.49,43.34,160.29,81.34,165.91,118.29Z"/></g></g></svg>