<svg xmlns="http://www.w3.org/2000/svg" viewBox="0 0 476.62 157.99"><defs><style>.cls-1{fill:#f4f4f4;}</style></defs><g id="Layer_2" data-name="Layer 2"><g id="Layer_4" data-name="Layer 4"><path class="cls-1" d="M430.62,54.82a12.19,12.19,0,0,0-1.06-1C429.5,54,429.78,54.27,430.62,54.82Z"/><path class="cls-1" d="M87.24,67.71c-.09.07-.21.13-.3.21C87.17,67.8,87.23,67.74,87.24,67.71Z"/><path class="cls-1" d="M369.65,47.89l.08,0c.12-.09.27-.16.37-.24Z"/><path class="cls-1" d="M452.46,61a45.1,45.1,0,0,0-4.74-7.39A42.68,42.68,0,0,0,442.47,48a41.24,41.24,0,0,0-11.32-7.08,43.28,43.28,0,0,0-12.74-3.12,60.44,60.44,0,0,0-15.91.7c-11.61,1.45-22.86,5.51-32.77,9.38a22.59,22.59,0,0,1-3.88,2.1c-1.42.62-3,1.19-4.58,1.74a70.36,70.36,0,0,0-9,3.4L350,54.9a13.19,13.19,0,0,1-5.78,1.63l.07-.25c-2.63,1.19-5.79,1.3-7.1,1.78l.08-.24c-1.1.15-2.2.34-3.3.45l.54-.37A30,30,0,0,1,321,58l.19,1a95,95,0,0,1-9.44-3l-.93-.39-.9-.46a12.8,12.8,0,0,1-1.76-1.1,14.16,14.16,0,0,1-1.7-1.47c-.27-.3-.53-.62-.8-.94l-.4-.51-.37-.57.24-.08a12.73,12.73,0,0,1-2.59-2.14,15,15,0,0,1-1.81-2.57,18.69,18.69,0,0,1-1.24-2.78c-.31-1-.63-1.94-.88-3-1.07-4.07-1.75-8.55-4.78-14.19.77,1.4.26-.79.51-.74a43.64,43.64,0,0,0-3.6-7.8c-1.35-2.13-2.69-3.39-3.52-2.93a15.58,15.58,0,0,1-1.78-3.31c-.08-.5.21-.64.3-1.12-.61.5-3.47-2.53-6.58-4.67l1.56.83a27.81,27.81,0,0,0-9.64-4.88c.51.71,1,1.42,1.43,2.12-2.46-1.12-2.71-1.57-2.93-2s-.45-.83-3.14-1.08l-.11,1.27c-3.64-.61-6.55-1-9.51-1.32a34.6,34.6,0,0,0-9.51.25,67.17,67.17,0,0,0-19.58,9.87,87.06,87.06,0,0,0-8.45,6.87c-1.32,1.23-2.65,2.51-3.88,3.78l-3.57,3.76c-4.7,5-9.17,10-13.75,14.51A86.86,86.86,0,0,1,183.89,51l-1.39-.14c-.3-.21-.68,0-1.1.5A19.28,19.28,0,0,0,180,53.13,14.34,14.34,0,0,1,178.43,55c-.5.45-1,.7-1.31.53-.63.62-1.26,1.29-1.91,1.89-.77.11-2.23.56-1.25-.29a14.38,14.38,0,0,0-3.43,2.29c-.89,0-1.75.12-2.6.11-1.09.24-2.13.51-3.15.81s-2.05.39-3.05.63-2,.3-3,.5-2,.2-3.09.25a41.68,41.68,0,0,1-13.77-1.8c-2.93-1.22-6.63-2.59-11-3.93a79.09,79.09,0,0,0-14.64-3.19,62.38,62.38,0,0,0-8.08-.31l-4,.28c-1.3.11-2.56.37-3.8.55-.62.1-1.24.19-1.84.31L96.83,54c-1.16.29-2.31.52-3.39.86-2.14.7-4.18,1.27-6,2-1.24.56-2.53,1-3.76,1.61S81.23,59.65,80,60.2s-2.5,1.19-3.77,1.77-2.5,1.25-3.77,1.85a150,150,0,0,0-14.89,8.53c-9.6,6.38-18.4,14.41-24.07,23.52a4.48,4.48,0,0,0-1.23,2.19c-4,5.09-7.79,10.36-11.34,15.73,0,0-3.24,4.88-7,11.51A221.22,221.22,0,0,0,3.12,146.87C.34,153.47-1,158.3.91,158c1-.16,2.8-1.62,5.71-4.77s6.92-8,12.39-14.82l0,.55c5.68-8.54,9.12-13.85,11.65-20.55,2.13.08,4.81-6.78,6.71-8.33v.27A24.34,24.34,0,0,1,43,102.84c1.08-1.13,2.21-2.2,3.23-3.33a22.13,22.13,0,0,0,2.69-3.61,1.88,1.88,0,0,1-.61,1.72c2.61-3.37,6.4-7.75,7.42-7.15A106.13,106.13,0,0,1,68.23,79.72c4.42-3.3,8.62-6.06,11.07-8.29l-.25.48a8.38,8.38,0,0,1,1.85-1.52,11.72,11.72,0,0,1,1.69-.86,38.38,38.38,0,0,0,4.13-1.91c.25,0,.55,0,.52.09a12.38,12.38,0,0,1,3.15-1.64,24.49,24.49,0,0,1,4-1.18c.67-.16,1.34-.34,2-.46l1.89-.31c1.19-.22,2.22-.46,3-.63l.29.7a52.69,52.69,0,0,1,7.62-.55c-.94-.14-1.9-.08-2.86-.13.47-1,2-.83,4-.25,1,.28,2.13.48,3.36.77a16.14,16.14,0,0,0,1.92.27,12,12,0,0,0,2.09.08c2.59.62,5.5.26,8.53.13s6.08-.12,8.78,1.17c3-.11-2.82.77,1.45,1.25-.15,1-2.09.08-1.27,1.18a25.88,25.88,0,0,1,5.44,1.75A18.4,18.4,0,0,0,147,71.35l.08.84a39,39,0,0,1,5.24.21c1.7.09,3.32.38,4.92.44.79,0,1.57.12,2.33.12s1.51,0,2.23-.12q.54,0,1-.12a9.73,9.73,0,0,0,1-.26,10.56,10.56,0,0,0,1.83-.72,33.43,33.43,0,0,1,4-1,11.91,11.91,0,0,1,2.38,0,6.84,6.84,0,0,0,2.35-.39,12,12,0,0,0,3.74-2.18l3.24-.44a4.91,4.91,0,0,0,2.21-2,5.55,5.55,0,0,1,2.5-1.93c.2.7,4.1-2.19,2.73-.43a19.88,19.88,0,0,0,2.64-1.66c.83-.61,1.68-1.25,2.47-1.94,1.54-1.41,3.12-2.89,4.61-4.49A74.42,74.42,0,0,1,209,45.83c.62-2.53,4.75-5.62,5.16-7.49.3.11,2.09-1.69,3.42-2.89s2.19-1.77.67.67c-.27.41-.89,1-1,.81l.1,1a20.31,20.31,0,0,0,5.74-5.5,28.28,28.28,0,0,1,5-5.69c-1.35.8-2.85,2.25-2.18.92,1.25-1.06,2.52-2.1,3.83-3.09-.13.39-.26.77-.38,1.16,2-1.42,4-2.76,6-4l-1.29-.12a25.57,25.57,0,0,1,4-1.53,9.69,9.69,0,0,0,3.77-2.47c1.28-1.45-3.48.61-.31-1.41a70.61,70.61,0,0,1,8-2.48,55.29,55.29,0,0,1,8.61-1.39c-.31-.43-.11-.69.37-.89a13.52,13.52,0,0,1,1.93-.41l.2.81c2.74-.63,3.19,0,3.59.49a2.27,2.27,0,0,0,.83.74,2.86,2.86,0,0,0,.86.25,11,11,0,0,0,1.41.2,6.88,6.88,0,0,0-.55.43,16.25,16.25,0,0,1,1.69-1.23,4,4,0,0,1,2.28.54,2,2,0,0,1,.77.94,2.46,2.46,0,0,0,.82.93,3.75,3.75,0,0,0,.93.49c.39.19.88.4,1.54.65-.77-.64-.65-1.14-.12-1.22a2,2,0,0,1,1.06.25A4.51,4.51,0,0,1,277,16.57c-.35,0-.7,0-1,0,.57.46.93.81,1.26,1.1a2.58,2.58,0,0,1,.79,1.05c-.83-.54-1.18.23.06,2a15.82,15.82,0,0,0-1.59-.71,14.84,14.84,0,0,1,1.65,1.39l.83.77.79.86a55,55,0,0,0,1.9,5.95c.7,2,1.24,3.93.95,4.87,0,0,.47,2.08,1.21,4.46s1.8,5,2.78,5.85c-.69-.75-.65.11-.6,1s.18,2-.54,1.39a22.44,22.44,0,0,1,1.6,2.28c.67,1,1.3,2.09,2.07,3.24a66.24,66.24,0,0,1,3.72,6.16l-.46-.42a25.71,25.71,0,0,0,5.87,6.29,30.31,30.31,0,0,0,3.31,2.26A37.69,37.69,0,0,0,305,68.15a58.26,58.26,0,0,0,6.93,2.51c2.34.65,4.7,1.33,7.18,2-.31-.93,4.87.16,3.68-1.19,5.06-.18,9.51.22,13.22.15s6.55-.6,7.9-2.73a16,16,0,0,1,4.44-.52,13.4,13.4,0,0,0,3,0l-.95.44c3.9-1.1,6.36-1.93,8.58-2.64l7-2.29c2.64-1.32,2.56-3.16,7.44-4.55-1.3,1.22.6.37,2.39-.27-1.11.51-1.37.87,1.12.47a4.81,4.81,0,0,1,1.16-.9c0,.05.15.06.13.14,2.89-1.26,2.31-1.28.89-.89,0-.13-.12-.21-.62-.24,3.38-.27,8.65-2.89,9.37-1.85,4.45-1.44,8.23-2.75,11.87-3.85a59,59,0,0,1,11-2.37c.88.58-.87,1.15-3,1.59,1.77-.23,3.55-.42,5.31-.49,0,.86-3,.54-4.64.89,3.2.45,6.33.05,9.64,0a17.17,17.17,0,0,1,9.73,2.16c.53-.06,1-.06,1.58-.07l.32.27c.07-.16.52-.22,1.06-.13a8.61,8.61,0,0,1,1.69.47c.23.6,0,1,0,1.41s.44.9,1.75,1.9a30.89,30.89,0,0,0,3.71,3.55,31.5,31.5,0,0,1,4.12,4.33c-.92-1.73-.25-1.42.45-.84a8.65,8.65,0,0,1,.85,2.13,4.31,4.31,0,0,0,.79,1.81l-.85.59c.29-.53,1,.44,1.74,1.62a26,26,0,0,0,1.67,2.9c-.19.64-.58,0-1-.81s-1-1.77-1.32-1.86c.71,1.68,1.12,2.77,1.39,3.54s.43,1.2.58,1.65c.29.89.62,1.75,1.65,5.43,1.78,3.79.77-1,2.13.71,1.1,3.51,2.58,6.88,2.93,11.2l.59-1.53a73.66,73.66,0,0,1,3.72,15.63c2.94,6,6.18,10.28,9.16,12.72a15.24,15.24,0,0,0,7,3.65c1.55.26,2.69.19,3-.2s.15-1-.46-1.87c-.83-1.43-2.41-3.33-3.52-5.26l-.78-1.38-.61-1.2c-.19-.33-.31-.64-.41-.85l-.14-.31a101.23,101.23,0,0,1-3.71-11.2l-3.24-11.42c-1.16-4-2.41-8.13-4-12.9A92.89,92.89,0,0,0,452.46,61Z"/></g></g></svg>