<svg xmlns="http://www.w3.org/2000/svg" viewBox="0 0 501.14 346.72"><defs><style>.cls-1{fill:#f4f4f4;}</style></defs><g id="Layer_2" data-name="Layer 2"><g id="Layer_4" data-name="Layer 4"><path class="cls-1" d="M435.56,304.65c-.66.23-1.3.48-2,.69C433.74,305.51,434.28,305.41,435.56,304.65Z" transform="translate(0 -0.46)"/><path class="cls-1" d="M14.91,160.16c-.08-.14-.16-.3-.24-.42C14.81,160.05,14.87,160.14,14.91,160.16Z" transform="translate(0 -0.46)"/><path class="cls-1" d="M359.26,319.17l.1,0c.14-.08.32-.14.45-.22Z" transform="translate(0 -0.46)"/><path class="cls-1" d="M446.82,279.15a146.67,146.67,0,0,1-24.64,15c-7.26,3.66-14.63,7.25-26.55,12.71a317.22,317.22,0,0,1-36.27,12.29c-5.35,3-15.87,3.55-22.56,5.92l-2.82-.52a19.37,19.37,0,0,1-7.55,1.31l.11-.3c-3.48,1.2-7.59,1.12-9.33,1.69l.12-.29c-1.45.21-2.9.35-4.36.51l.72-.46a81.08,81.08,0,0,1-18.46,1.57l.52,1.15a75.39,75.39,0,0,0-8-.19c-2.32,0-4.38.18-6.41.32s-4,.22-6.2.18a45.89,45.89,0,0,1-7.32-.7l.17-.27c-7.08,1.31-12.65.47-18.21-.43s-11.13-2-18.48-1.29c1.83-.17-.71-.67-.53-1-6.64-.41-13.68-1.27-14.13,1-4.8-.8-3.8-1.33-4.28-2.29-.14,1-4.36.68-8.11.06l1.79-.07c-1.79-.25-3.57-.58-5.36-.88s-3.57-.6-5.34-1l1.68,2.32c-5.52-1.82-.93-2.56-6.41-3.36l-.3,1.54a41.86,41.86,0,0,1-9.52-4.18c-2.8-1.56-5.45-3.36-8.89-5-14.88-5.26-30-11.27-44-19.36s-26.56-18.11-36-29.44l-.07-1.76c.42-.8-1.44-1.8-3.37-2.85s-3.86-2.24-3.66-3.18c-1-.66-1.94-1.31-2.89-2-.4-.93-1.48-2.68-.07-1.65-2-2.44-2.3-2.3-4.16-3.71l-1.33-3.32c-1.84-2.52-3.6-4.95-5.46-7.24s-3.67-4.58-5.5-6.88-3.65-4.64-5.38-7.16a87.36,87.36,0,0,1-5.07-8c-3.13-7.37-8.56-17.35-13.62-27.79s-10-21.18-13.17-29.25a92.39,92.39,0,0,1-5.66-18c-.72-3.16-1.22-6.4-1.75-9.65s-.88-6.55-1.23-9.85c-1.4-13.21-2-26.39-4.29-38.68a5.22,5.22,0,0,0-.66-2.86c-.38-7.59-.37-15.19-.25-22.78l.12-4.58c0-2.85.22-6.84.38-11.36.39-9,1.24-20.2,1.77-28.81A89.69,89.69,0,0,0,16.73,3.8C16.5,1.32,15.94,0,14.85.58,12.83,1.7,8,9.86,2.26,31.24L2,30.62C-.18,43.47-.61,51.76,1.13,60.71,0,61.41-.08,64.09.05,67s.6,5.94.26,7.47l-.2-.28a29.54,29.54,0,0,1,.79,6c.08,2-.05,4.06-.07,6.09s-.1,4.06,0,6a23.33,23.33,0,0,0,1,5.79C1.6,97.8,1,97.7.75,96c.77,5.54,2.3,13,1,13.62.54,3.3,1.14,6.92,1.75,10.63s1.34,7.5,2.2,11.1c1.56,7.23,3.64,13.77,5.73,17.62l-.5-.47a17.74,17.74,0,0,1,2.2,5.26,28,28,0,0,0,1.91,5.76c-.08.34-.05.73-.14.69a49.17,49.17,0,0,1,3.84,9.52c1.19,3.52,2.25,7,3.32,8.86l-.73.57,2,4.88,2.11,4.83-1.33-3.71c1.39.17,1.8,2.14,2.41,4.9a35,35,0,0,0,1.31,4.54,18,18,0,0,0,2.57,4.84,18.87,18.87,0,0,0,2.9,4.59c1.22,1.42,2.58,2.76,3.92,4.12s2.69,2.69,3.84,4.14A17.73,17.73,0,0,1,43.85,217c2.73,2.47-3.16-1.76.21,2.35-1,.79-1.91-1.73-2.12,0a31.67,31.67,0,0,1,3.26,6.2,25,25,0,0,0,4.08,6.78l-.69.75a34.77,34.77,0,0,1,3.85,4.76c1.1,1.62,2,3.29,2.92,4.85,1.84,3.11,3.47,6,5.89,7.65,2.93,3.19,3.3,4.75,3.78,6.29s1.07,3.08,4.8,5.85L71.12,266c2.47,3,3.1,1,5.53,4.56-.82.4,3.31,4.37,1,3.12a35.9,35.9,0,0,0,5,5.5c1.87,1.7,3.87,3.36,6,5,1,.84,2.12,1.7,3.19,2.59s2.2,1.76,3.3,2.72a79.49,79.49,0,0,1,6.63,6.45c3.23.42,7.85,5.08,10.32,5.21,0,.38,2.57,2.3,4.44,3.65s2.87,2.29-.64,1c-.6-.23-1.52-.86-1.3-1.06l-1.26.32a19.27,19.27,0,0,0,4.15,3.45,28.88,28.88,0,0,0,4.55,2.36c1.56.67,3.14,1.29,4.72,2a37.5,37.5,0,0,1,4.77,2.34c-1.75-1.33-4.32-2.64-2.3-2.3,2,1.11,3.9,2.28,5.91,3.34-.55,0-1.1.07-1.64.08l4.43,2.5,2.22,1.25,2.26,1.17-.84-1.51c2.14,1.27,3.43,2.48,4.91,3.5a13.66,13.66,0,0,0,6,2.17c2.62.22-3.8-3.08,1.12-1.37a152.17,152.17,0,0,0,22.89,9.94c-.44-1.32,1.72-.66,4-.25v1c4.49.44,5.14,1.17,5.79,1.93s1.29,1.56,5.73,2l-.91.5,2.73-1.51c4.09-.14,5,.55,6.1,1.21s2.3,1.23,6.87.68c-3.45-.45-1.22-2.43,2.89-1.28l-1.23.77c2.37.18,3.21-.1,4.73.35-1.47.29-1,1.26,2.51,1.64l-2.49.83c2.26-.22,4.52-.53,6.76-.81,4.89,1.75,13,1.31,14.93,2.85l1.72.26c1.05.13,2.48.29,4,.41,3,.26,6.37.27,7.66-.38-2.24.77,3.7,1.55,1.93,2.51,2.9-.88,11.21-1.25,14.5-.07l-.63.1a80.18,80.18,0,0,0,16.56.15c2.56-.19,5.08-.38,7.65-.44a59.87,59.87,0,0,1,8,.18c-.27-.58,1.06-.74,2.27-1s2.3-.51,1.54-1.21a46.56,46.56,0,0,1,8.12-.66c2.56-.06,5,0,7.12,0,4.32,0,7.72-.44,9.51-2.9,5.12-.84,6.24.28,8.94.17l-1.2.41,19.56-3.6c3.48-1.1,3.57-3.38,10-4.28-1.85,1.26.71.59,3.05,0-1.46.52-1.86.94,1.37.68a6.54,6.54,0,0,1,1.6-1c0,.06.17.08.13.18,3.85-1.31,3.1-1.39,1.25-1,.06-.15-.14-.27-.76-.35a18.2,18.2,0,0,0,3.61-.46c1.28-.28,2.56-.68,3.75-1,2.37-.68,4.32-1.18,4.78-.56a121.78,121.78,0,0,0,15-6.42l3.31-1.65,3.23-1.74,6.56-3.45c1.34.18-.51,1.84-3.13,3.22,1.08-.52,2.19-1,3.25-1.56l3.2-1.67c.4,1-3.46,2.4-5.45,3.41a23.52,23.52,0,0,0,6.18-2.3c1-.5,2-1,3-1.61s2-1.17,2.94-1.82c1.94-1.28,3.92-2.58,6-3.77a45.93,45.93,0,0,1,6.61-3.34l1.38-1.78.59-.18c-.25-.34,1.32-2.09,2.5-3,1.69,0,1.06,1.87,5.25-.88,1.93-.67,4.14-2.46,6.41-4.38s4.45-4.22,6.34-6c-2.3,1.58-1.9.62-1.16-.37,1.94-1.56,3.69-1.66,4.91-3.22l1,.82c-1.5-.29,4.15-5.21,4.51-6.19,1.7-.22-2.42,3.11-2.44,4.05l3.91-3.4,1.7-1.62c.91-.87,1.82-1.73,5.44-5.21,3.06-4.51-1.51-.15-.51-2.76,1.54-1.77,2.95-3.62,4.5-5.44a41.69,41.69,0,0,1,5.15-5.52l-2,.54c2.62-3.51,4.54-6.41,6.55-8.81.49-.6,1-1.18,1.49-1.73l1.44-1.67c1-1.09,2-2.13,3.05-3.17l1.37-2.66c.41-.88.78-1.75,1.15-2.59.71-1.68,1.39-3.25,2-4.73s1.11-2.91,1.56-4.24.85-2.57,1.22-3.72a46.26,46.26,0,0,0,1.5-6,40.9,40.9,0,0,0,.61-4.18c.18-2.2-.1-3.44-.61-3.84s-1.3,0-2.22.83a23.25,23.25,0,0,0-3.07,3.47c-.54.71-1.08,1.46-1.6,2.22s-1,1.54-1.57,2.25c-2.12,2.87-3.73,5.37-3.73,5.37l-9.54,12.95c-1.38,2-2.9,3.88-4.29,5.81l-2.09,2.89L470.18,254c-2.88,3.87-6,7.72-9.72,11.92-1.92,2-3.89,4.22-6.14,6.42l-3.57,3.33-1.89,1.74C448.21,278,447.51,278.57,446.82,279.15Z" transform="translate(0 -0.46)"/></g></g></svg>